<svg width="320" height="170" viewBox="0 0 320 170" xmlns="http://www.w3.org/2000/svg"><g fill="none" fill-rule="evenodd"><rect width="320" height="170"/><g transform="translate(80 63)" fill="#001A54" fill-rule="nonzero"><rect y=".854" width="5.945" height="42.355"/><path d="M152.966115.916441609C139.873532 23.4071197 126.548576 38.2111765 121.765325 38.2111765 117.442906 38.2111765 106.268062 24.3522817 94.427428.916441609L87.6024184.916441609C93.551456 12.9790064 110.132261 44.3168708 121.765325 44.3168708 134.467571 44.3168708 155.501342 8.78060721 160 .916441609L152.966115.916441609ZM26.2595769 43.0597009C38.0388541 19.8288199 49.1249255 6.10569431 53.4277625 6.10569431 58.1862093 6.10569431 71.4015062 20.7583163 84.4301205 43.0597009L91.4640057 43.0597009C86.5958992 34.5845742 65.9602973 0 53.4277625 0 41.9017469 0 25.521985 30.7569292 19.4319563 43.0597009L26.2595769 43.0597009Z"/></g></g></svg>