<?xml version="1.0"?>
<svg width="430" height="430" xmlns="http://www.w3.org/2000/svg" fill="#FF0000" xmlns:svg="http://www.w3.org/2000/svg" clip-rule="evenodd" fill-rule="evenodd" version="1.1">
 <g class="layer">
  <title>Layer 1</title>
  <g id="svg_1">
   <path d="m-1094.5,27c341.33,0 682.67,0 1024,0c0,341.33 0,682.67 0,1024c-341.33,0 -682.67,0 -1024,0c0,-341.33 0,-682.67 0,-1024z" fill="black" id="svg_2"/>
  </g>
  <g id="svg_3">
   <path d="m200.5,4.5c74.94,-2.1 136.11,25.56 183.5,83c46.15,64.32 55.15,133.65 27,208c-34.29,72.92 -91.46,115.42 -171.5,127.5c-84.58,6.12 -151.41,-25.05 -200.5,-93.5c-38.37,-63.12 -44.03,-129.12 -17,-198c27.31,-59.3 72.14,-98.8 134.5,-118.5c14.61,-3.82 29.28,-6.65 44,-8.5z" fill="#2f8a8a" id="svg_4"/>
  </g>
  <g id="svg_5">
   <path d="m215.5,109.5c-0.67,-5.33 -1.33,-5.33 -2,0c-9.75,56.73 -19.91,113.39 -30.5,170c-14.93,-80.04 -30.1,-160.04 -45.5,-240c0.33,-0.67 0.67,-1.33 1,-2c51.65,-21.21 103.31,-21.21 155,0c-14.19,80.77 -29.02,161.43 -44.5,242c-10.73,-56.81 -21.9,-113.48 -33.5,-170z" fill="#fefefe" id="svg_6"/>
  </g>
  <g id="svg_7">
   <path d="m116.5,49.5c1.33,110 1.33,220 0,330c-61.63,-38.22 -92.96,-93.89 -94,-167c2.73,-71.17 34.07,-125.5 94,-163z" fill="#fefefe" id="svg_8"/>
  </g>
  <g id="svg_9">
   <path d="m313.5,48.5c53.39,32.06 84.89,79.06 94.5,141c7.29,83.08 -24.04,146.75 -94,191c-0.5,-110.67 -0.67,-221.33 -0.5,-332z" fill="#fefefe" id="svg_10"/>
  </g>
  <g id="svg_11">
   <path d="m215.5,109.5c-0.67,0 -1.33,0 -2,0c0.67,-5.33 1.33,-5.33 2,0z" fill="#fefefe" id="svg_12"/>
  </g>
  <g id="svg_13">
   <path d="m137.5,128.5c13.27,77.37 28.43,154.37 45.5,231c2.95,-8.45 5.28,-17.11 7,-26c9.1,-44.9 17.6,-89.9 25.5,-135c10.46,54.48 21.63,108.82 33.5,163c16.92,-77.34 32.09,-155 45.5,-233c1,87.16 1.33,174.5 1,262c-53.05,22.57 -106.05,22.57 -159,0c-0.33,-87.5 0,-174.84 1,-262z" fill="#fefefe" id="svg_14"/>
  </g>
  <g id="svg_15">
   <path d="m116.5,49.5c0.06,-0.54 0.39,-0.88 1,-1c1.33,110.67 1.33,221.33 0,332c-0.61,-0.12 -0.94,-0.46 -1,-1c1.33,-110 1.33,-220 0,-330z" fill="#fefefe" id="svg_16"/>
  </g>
  <g id="svg_17">
   <path d="m137.5,128.5c-1,87.16 -1.33,174.5 -1,262c-1.17,-89.83 -1.33,-179.83 -0.5,-270c0.39,2.71 0.89,5.37 1.5,8z" fill="#fefefe" id="svg_18"/>
  </g>
  <g id="svg_19">
   <path d="m295.5,390.5c0.33,-87.5 0,-174.84 -1,-262c0.43,-2.67 0.93,-5.33 1.5,-8c0.83,90.17 0.67,180.17 -0.5,270z" fill="#fefefe" id="svg_20"/>
  </g>
  <rect fill="#FF0000" height="0" id="svg_21" stroke="#000000" width="0" x="-362" y="160"/>
 </g>
</svg>